<?xml version="1.0" encoding="utf-8"?>
<svg width="512px" height="512px" viewBox="0 0 65536 65536" xmlns="http://www.w3.org/2000/svg" xmlns:bx="https://boxy-svg.com">
  <defs>
    <bx:grid x="0" y="0" width="1024" height="1024"/>
    <path id="path-0" d="M 36987.838 -16638.64 L 37256.979 -13005.227 C 43043.525 -8160.677 47138.102 515.707 54616.617 1528.423 C 58606.656 2068.741 53547.862 -12965.826 56635.179 -10381.096" style="fill: none;"/>
    <path id="path-1" d="M 45802.2271092956 -14014.508362035209 L 48697.515235454906 57.938576739141354" style="fill: none;"/>
    <path id="path-2" d="M -10852.093775811867 -16167.641697336207 L 5373.6748252709585 -17110.217466693714" style="fill: none;"/>
    <path id="path-3" d="M 39006.4 -15427.502 L 40352.108 -15629.358 C 43089.67 -15857.489 45301.395 -15459.875 47820.79 -14620.077" style="fill: none;"/>
  </defs>
  <g style="" transform="matrix(1, 0, 0, 1, 32518, 32518)">
    <path style="fill: rgb(255, 255, 255);" transform="matrix(69.057953, 0, 0, 69.057953, -70062.328125, -26178.685547)" d="M 1018.164 847.53 A 464.827 464.827 0 1 1 1018.164 -82.124 L 1018.164 382.703 Z" bx:shape="pie 1018.164 382.703 0 464.827 180 360 1@498e966f"/>
    <path style="fill: rgb(238, 187, 203);" transform="matrix(69.057953, 0, 0, 69.057953, -70062.320312, -26178.685547)" d="M 1018.164 -82.124 A 464.827 464.827 0 1 1 1018.164 847.53 L 1018.164 382.703 Z" bx:shape="pie 1018.164 382.703 0 464.827 0 180 1@cb42c37e"/>
    <circle style="fill: rgb(255, 255, 255);" cx="250" cy="-15466" r="15716"/>
    <circle style="fill: rgb(238, 187, 203);" cx="250" cy="15966" r="15716" bx:origin="0.5 0.5"/>
    <path d="M 250 250 m -32768 0 a 32768 32768 0 1 0 65536 0 a 32768 32768 0 1 0 -65536 0 Z M 250 250 m -31432 0 a 31432 31432 0 0 1 62864 0 a 31432 31432 0 0 1 -62864 0 Z" style="fill: rgb(238, 187, 203);" bx:shape="ring 250 250 31432 31432 32768 32768 1@cd931d18"/>
  </g>
  <path d="M 13103.833 32768 L 32768.002 32768 L 32768.002 65535.998 L 13103.833 65535.998 L 17183.326 61439.999 L 13103.833 57343.999 L 17183.326 53247.999 L 13103.833 49151.999 L 17183.326 45056 L 13103.833 40960 L 17183.326 36864 L 13103.833 32768 Z" style="fill: rgb(238, 187, 203);"/>
  <g style="" transform="matrix(1, 0, 0, 1, 32518, 32518)">
    <path d="M -2814.919 7774 L -766.919 7774 L 1281.081 7774 L 3314.919 9822.001 L 1281.081 11870.001 L 3314.919 13918.001 L 1281.081 15966.001 L 3314.919 18014.002 L 1281.081 20062.002 L 3314.919 22110.002 L 1281.081 24158.002 L -766.919 24158.002 L -2814.919 24158.002 L -781.081 22110.002 L -2814.919 20062.002 L -781.081 18014.002 L -2814.919 15966.001 L -781.081 13918.001 L -2814.919 11870.001 L -781.081 9822.001 L -2814.919 7774 Z" style="fill: rgb(255, 255, 255);"/>
    <path d="M 266.402 -7273.999 C -1359.596 -7273.999 -2644.72 -7819.035 -3588.97 -8909.099 C -4533.221 -9999.186 -5005.346 -11579.619 -5005.346 -13650.398 L -5005.346 -17270.629 C -5005.346 -19341.43 -4535.044 -20923.686 -3594.442 -22017.4 C -2653.838 -23111.134 -1374.178 -23658 244.541 -23658 C 1855.965 -23658 3135.629 -23111.134 4083.525 -22017.4 C 5031.405 -20923.686 5505.345 -19341.43 5505.345 -17270.629 L 5505.345 -13650.398 C 5505.345 -11572.321 5035.046 -9990.065 4094.442 -8903.627 C 3153.84 -7817.209 1877.826 -7273.999 266.402 -7273.999 Z M 266.402 -9395.827 C 1075.764 -9395.827 1691.9 -9713.008 2114.811 -10347.364 C 2537.724 -10981.723 2749.178 -11962.429 2749.178 -13289.477 L 2749.178 -17653.439 C 2749.178 -18965.916 2534.075 -19939.335 2103.866 -20573.691 C 1673.676 -21208.05 1053.903 -21525.228 244.541 -21525.228 C -572.115 -21525.228 -1193.712 -21209.873 -1620.255 -20579.163 C -2046.815 -19948.453 -2260.095 -18973.212 -2260.095 -17653.439 L -2260.095 -13289.477 C -2260.095 -11962.429 -2045.001 -10981.723 -1614.811 -10347.364 C -1184.602 -9713.008 -557.53 -9395.827 266.402 -9395.827 Z" style="white-space: pre; fill: rgb(238, 187, 203);"/>
  </g>
</svg>